<svg width="27" height="33" viewBox="0 0 27 33" fill="none" xmlns="http://www.w3.org/2000/svg">
<path d="M22.625 22.8462V23.2595L22.9169 23.5523L26 26.6442V26.9231h2V26.6442L4.08311 23.5523L4.375 23.2595V22.8462V14.3846C4.375 9.51898 6.9118 5.68104 11.1999 4.66214L11.9688 4.47946V3.68923V2.53846C11.9688 1.68345 12.6543 1 13.5 1C14.3457 1 15.0312 1.68345 15.0312 2.53846V3.68923V4.47882L15.7993 4.66196C20.0719 5.68072 22.625 9.5368 22.625 14.3846V22.8462ZM15.654 30.6154C15.2745 31.4312 14.4476 32 13.5 32C12.871 32 12.2672 31.7495 11.8216 31.3026C11.6214 31.1017 11.4604 30.8687 11.3439 30.6154h25.654Z" stroke="black" stroke-width="2"/>
</svg>
