<svg width="104" height="104" viewBox="0 0 104 104" fill="none" xmlns="http://www.w3.org/2000/svg">
<path d="M52 4C25.4896 4 4 25.4896 4 52C4 78.5104 25.4896 100 52 100C78.5104 100 100 78.5104 100 52C100 25.4896 78.5104 4 52 4Z" stroke="#A69696" stroke-width="8" stroke-linecap="round" stroke-linejoin="round"/>
<path d="M14.9034 82.4609C14.9034 82.4609 25.6026 68.8 52.0026 68.8C78.4026 68.8 89.1066 82.4609 89.1066 82.4609" stroke="#A69696" stroke-width="8" stroke-linecap="round" stroke-linejoin="round"/>
<path d="M51.9994 51.9999C55.8185 51.9999 59.4812 50.4828 62.1818 47.7823C64.8823 45.0817 66.3994 41.419 66.3994 37.5999C66.3994 33.7808 64.8823 30.1181 62.1818 27.4176C59.4812 24.7171 55.8185 23.1999 51.9994 23.1999C48.1803 23.1999 44.5176 24.7171 41.8171 27.4176C39.1166 30.1181 37.5994 33.7808 37.5994 37.5999C37.5994 41.419 39.1166 45.0817 41.8171 47.7823C44.5176 50.4828 48.1803 51.9999 51.9994 51.9999V51.9999Z" stroke="#A69696" stroke-width="8" stroke-linecap="round" stroke-linejoin="round"/>
</svg>
